<?xml version="1.0" encoding="UTF-8"?>
<svg id="Layer_1" data-name="Layer 1" xmlns="http://www.w3.org/2000/svg" viewBox="0 0 100 100">
  <defs>
    <style>
      .cls-1 {
        fill: #fff4dc;
      }

      .cls-2 {
        fill: #9d8bbb;
      }
    </style>
  </defs>
  <circle class="cls-2" cx="50" cy="50" r="37.5"/>
  <g>
    <path class="cls-2" d="m20.5,38.85c4.99,0,7.73,1.92,7.73,5.89,0,4.43-2.65,7.9-9.11,7.9h-2.23l-.31,1.41c-.45,2.11-1.44,3.19-3.44,3.19h-.99c-1.86,0-2.96-1.13-2.51-3.24l2.51-11.79c.51-2.4,1.95-3.36,4.15-3.36h4.2m-2.68,8.85h1.61c1.27,0,2.14-.76,2.14-2.31,0-.9-.62-1.44-1.86-1.44h-1.1l-.79,3.75m2.68-11.85h-4.2c-3.73,0-6.31,2.09-7.08,5.73l-2.51,11.78c-.4,1.89-.06,3.63.98,4.91,1.02,1.26,2.61,1.96,4.47,1.96h.99c1.8,0,4.87-.62,6.12-4.6,8.82-.06,11.96-5.66,11.96-10.9,0-3.68-1.74-5.75-3.2-6.84-1.82-1.36-4.36-2.05-7.53-2.05h0Z"/>
    <path class="cls-1" d="m9.64,54l2.51-11.79c.51-2.4,1.95-3.36,4.15-3.36h4.2c4.99,0,7.73,1.92,7.73,5.89,0,4.43-2.65,7.9-9.11,7.9h-2.23l-.31,1.41c-.45,2.11-1.44,3.19-3.44,3.19h-.99c-1.86,0-2.96-1.13-2.51-3.24Zm9.78-6.29c1.27,0,2.14-.76,2.14-2.31,0-.9-.62-1.44-1.86-1.44h-1.1l-.79,3.75h1.61Z"/>
  </g>
  <g>
    <path class="cls-2" d="m39.19,38.43c6.09,0,8.85,3.95,8.85,8.26,0,5.3-3.44,10.77-10.55,10.77-6.09,0-8.85-3.95-8.85-8.26,0-5.3,3.44-10.77,10.55-10.77m-1.35,12.97c2.09,0,3.41-2,3.41-4.26,0-1.52-.9-2.65-2.4-2.65-2.09,0-3.41,2-3.41,4.26,0,1.52.9,2.65,2.4,2.65m1.35-13.72c-3.5,0-6.45,1.27-8.51,3.66-1.8,2.09-2.79,4.88-2.79,7.86,0,4.16,2.52,9.01,9.6,9.01,3.5,0,6.45-1.26,8.51-3.66,1.8-2.09,2.79-4.88,2.79-7.86,0-4.16-2.52-9.01-9.6-9.01h0Zm-1.35,12.97c-1.21,0-1.65-.98-1.65-1.9,0-1.7.93-3.51,2.66-3.51,1.21,0,1.65.98,1.65,1.9,0,1.7-.93,3.51-2.66,3.51h0Z"/>
    <path class="cls-1" d="m28.65,49.2c0-5.3,3.44-10.77,10.55-10.77,6.09,0,8.85,3.95,8.85,8.26,0,5.3-3.44,10.77-10.55,10.77-6.09,0-8.85-3.95-8.85-8.26Zm12.6-2.06c0-1.52-.9-2.65-2.4-2.65-2.09,0-3.41,2-3.41,4.26,0,1.52.9,2.65,2.4,2.65,2.09,0,3.41-2,3.41-4.26Z"/>
  </g>
  <g>
    <path class="cls-2" d="m81.65,38.43c6.09,0,8.85,3.95,8.85,8.26,0,5.3-3.44,10.77-10.55,10.77-6.09,0-8.85-3.95-8.85-8.26,0-5.3,3.44-10.77,10.55-10.77m-1.35,12.97c2.09,0,3.41-2,3.41-4.26,0-1.52-.9-2.65-2.4-2.65-2.09,0-3.41,2-3.41,4.26,0,1.52.9,2.65,2.4,2.65m1.35-15.97c-8.89,0-13.55,6.93-13.55,13.77,0,5.61,3.67,11.26,11.85,11.26,8.89,0,13.55-6.93,13.55-13.77,0-5.61-3.67-11.26-11.85-11.26h0Z"/>
    <path class="cls-1" d="m71.1,49.2c0-5.3,3.44-10.77,10.55-10.77,6.09,0,8.85,3.95,8.85,8.26,0,5.3-3.44,10.77-10.55,10.77-6.09,0-8.85-3.95-8.85-8.26Zm12.6-2.06c0-1.52-.9-2.65-2.4-2.65-2.09,0-3.41,2-3.41,4.26,0,1.52.9,2.65,2.4,2.65,2.09,0,3.41-2,3.41-4.26Z"/>
  </g>
  <g>
    <path class="cls-2" d="m68.54,38.71c1.97,0,2.79,1.04,2.34,3.19l-2.59,12.15c-.45,2.11-1.3,3.19-3.3,3.19h-.79c-1.86,0-2.82-1.13-2.37-3.24l.34-1.66.79-3.61-1.72,3.72c-.34.71-.37,1.44-2.74,1.44-2.65,0-2.45-.73-2.51-1.44l-.22-3.36-.71,3.24-.37,1.72c-.45,2.11-1.3,3.19-3.3,3.19h-.79c-1.86,0-2.82-1.13-2.37-3.24l2.57-12.1c.45-2.14,1.69-3.19,3.58-3.19h1.75c1.66,0,2.28.48,2.48,1.69l1.04,6.06,3.75-6.34c.68-1.16,1.55-1.41,2.93-1.41h2.2m0-.75h-2.2c-1.52,0-2.71.3-3.58,1.78l-2.71,4.59-.7-4.05c-.33-2.04-1.81-2.31-3.22-2.31h-1.75c-2.27,0-3.8,1.34-4.32,3.78l-2.57,12.1c-.34,1.61.08,2.57.5,3.08.39.49,1.16,1.06,2.6,1.06h.79c2.86,0,3.66-2.02,4.03-3.78l.11-.51c.42.67,1.34.94,2.96.94,1.32,0,2.08-.23,2.55-.58-.27,1.48.14,2.38.54,2.87.39.49,1.16,1.06,2.6,1.06h.79c2.86,0,3.66-2.02,4.03-3.78l2.59-12.15c.28-1.33.13-2.36-.45-3.08-.55-.67-1.43-1.02-2.62-1.02h0Z"/>
    <path class="cls-1" d="m70.88,41.9l-2.59,12.15c-.45,2.11-1.3,3.19-3.3,3.19h-.79c-1.86,0-2.82-1.13-2.37-3.24l.34-1.66.79-3.61-1.72,3.72c-.34.71-.37,1.44-2.74,1.44-2.65,0-2.45-.73-2.51-1.44l-.22-3.36-.71,3.24-.37,1.72c-.45,2.11-1.3,3.19-3.3,3.19h-.79c-1.86,0-2.82-1.13-2.37-3.24l2.57-12.1c.45-2.14,1.69-3.19,3.58-3.19h1.75c1.66,0,2.28.48,2.48,1.69l1.04,6.06,3.75-6.34c.68-1.16,1.55-1.41,2.93-1.41h2.2c1.97,0,2.79,1.04,2.34,3.19Z"/>
  </g>
</svg>